<svg width="24" height="24" viewBox="0 0 24 24" fill="none" xmlns="http://www.w3.org/2000/svg">
<g clip-path="url(#clip0_0_729)">
<path d="M12.0292 0H11.9745C5.36218 0 0.00183105 5.36035 0.00183105 11.9727V12.0273C0.00183105 18.6397 5.36218 24 11.9745 24H12.0292C18.6415 24 24.0018 18.6397 24.0018 12.0273V11.9727C24.0018 5.36035 18.6415 0 12.0292 0Z" fill="url(#paint0_radial_0_729)"/>
<path fill-rule="evenodd" clip-rule="evenodd" d="M15.7123 4.88281H8.28601C6.23437 4.88281 4.56531 6.55187 4.56531 8.60351V15.3975C4.56531 17.4491 6.23437 19.1182 8.28601 19.1182H15.7123C17.7639 19.1182 19.433 17.4491 19.433 15.3975V8.60351C19.433 6.55187 17.7639 4.88281 15.7123 4.88281ZM5.87785 8.60351C5.87785 7.27583 6.95833 6.19536 8.28601 6.19536H15.7123C17.04 6.19536 18.1204 7.27583 18.1204 8.60351V15.3975C18.1204 16.7252 17.04 17.8056 15.7123 17.8056H8.28601C6.95833 17.8056 5.87785 16.7252 5.87785 15.3975V8.60351ZM11.9998 15.4608C13.9077 15.4608 15.4607 13.9086 15.4607 11.9999C15.4607 10.0912 13.9085 8.53906 11.9998 8.53906C10.0911 8.53906 8.53894 10.0912 8.53894 11.9999C8.53894 13.9086 10.0911 15.4608 11.9998 15.4608ZM11.9998 9.85245C13.1846 9.85245 14.1482 10.816 14.1482 12.0008C14.1482 13.1855 13.1846 14.1491 11.9998 14.1491C10.8151 14.1491 9.85149 13.1855 9.85149 12.0008C9.85149 10.816 10.8151 9.85245 11.9998 9.85245ZM16.7139 8.16491C16.7139 8.6795 16.2953 9.0974 15.7817 9.0974C15.2673 9.0974 14.8495 8.6795 14.8495 8.16491C14.8495 7.65032 15.2673 7.23242 15.7817 7.23242C16.2961 7.23242 16.7139 7.65032 16.7139 8.16491Z" fill="white"/>
</g>
<defs>
<radialGradient id="paint0_radial_0_729" cx="0" cy="0" r="1" gradientUnits="userSpaceOnUse" gradientTransform="translate(6.37686 25.8485) rotate(-90) scale(23.7858 22.1226)">
<stop stop-color="#FFDD55"/>
<stop offset="0.1" stop-color="#FFDD55"/>
<stop offset="0.5" stop-color="#FF543E"/>
<stop offset="1" stop-color="#C837AB"/>
</radialGradient>
<clipPath id="clip0_0_729">
<rect width="24" height="24" fill="white"/>
</clipPath>
</defs>
</svg>
