<svg width="24" height="24" viewBox="0 0 24 24" fill="none" xmlns="http://www.w3.org/2000/svg">
<g clip-path="url(#clip0_0_831)">
<path d="M12.0292 0H11.9745C5.36218 0 0.00183105 5.36035 0.00183105 11.9727V12.0273C0.00183105 18.6397 5.36218 24 11.9745 24H12.0292C18.6415 24 24.0018 18.6397 24.0018 12.0273V11.9727C24.0018 5.36035 18.6415 0 12.0292 0Z" fill="white" fill-opacity="0.3"/>
<path fill-rule="evenodd" clip-rule="evenodd" d="M15.7126 4.88281H8.28638C6.23473 4.88281 4.56567 6.55187 4.56567 8.60351V15.3975C4.56567 17.4491 6.23473 19.1182 8.28638 19.1182H15.7126C17.7643 19.1182 19.4333 17.4491 19.4333 15.3975V8.60351C19.4333 6.55187 17.7643 4.88281 15.7126 4.88281ZM5.87822 8.60351C5.87822 7.27583 6.95869 6.19536 8.28638 6.19536H15.7126C17.0403 6.19536 18.1208 7.27583 18.1208 8.60351V15.3975C18.1208 16.7252 17.0403 17.8056 15.7126 17.8056H8.28638C6.95869 17.8056 5.87822 16.7252 5.87822 15.3975V8.60351ZM12.0002 15.4608C13.9081 15.4608 15.4611 13.9086 15.4611 11.9999C15.4611 10.0912 13.9089 8.53906 12.0002 8.53906C10.0915 8.53906 8.53931 10.0912 8.53931 11.9999C8.53931 13.9086 10.0915 15.4608 12.0002 15.4608ZM12.0002 9.85245C13.1849 9.85245 14.1485 10.816 14.1485 12.0008C14.1485 13.1855 13.1849 14.1491 12.0002 14.1491C10.8155 14.1491 9.85185 13.1855 9.85185 12.0008C9.85185 10.816 10.8155 9.85245 12.0002 9.85245ZM16.7143 8.16589C16.7143 8.68048 16.2957 9.09838 15.7821 9.09838C15.2676 9.09838 14.8499 8.68048 14.8499 8.16589C14.8499 7.6513 15.2676 7.2334 15.7821 7.2334C16.2965 7.2334 16.7143 7.6513 16.7143 8.16589Z" fill="white"/>
</g>
<defs>
<clipPath id="clip0_0_831">
<rect width="24" height="24" fill="white"/>
</clipPath>
</defs>
</svg>
