<svg width="24" height="24" viewBox="0 0 24 24" fill="none" xmlns="http://www.w3.org/2000/svg">
<g clip-path="url(#clip0_0_703)">
<path d="M12 24C18.6274 24 24 18.6274 24 12C24 5.37258 18.6274 0 12 0C5.37258 0 0 5.37258 0 12C0 18.6274 5.37258 24 12 24Z" fill="#29AAEB"/>
<path fill-rule="evenodd" clip-rule="evenodd" d="M5.4322 11.8739C8.93044 10.3498 11.2632 9.34501 12.4303 8.85954C15.7629 7.47343 16.4553 7.23264 16.9067 7.22469C17.0059 7.22295 17.2279 7.24755 17.3717 7.36421C17.4931 7.46272 17.5265 7.59579 17.5425 7.68919C17.5584 7.78258 17.5783 7.99534 17.5625 8.16159C17.3819 10.0591 16.6005 14.6638 16.203 16.789C16.0348 17.6882 15.7035 17.9897 15.3829 18.0193C14.686 18.0834 14.1569 17.5587 13.4819 17.1163C12.4258 16.424 11.8291 15.993 10.8039 15.3174C9.61914 14.5367 10.3872 14.1075 11.0624 13.4063C11.2391 13.2227 14.3095 10.43 14.3689 10.1766C14.3763 10.1449 14.3832 10.0268 14.3131 9.96446C14.2429 9.90209 14.1393 9.92342 14.0646 9.94038C13.9587 9.96442 12.2715 11.0796 9.00294 13.286C8.52403 13.6148 8.09025 13.775 7.70159 13.7666C7.27313 13.7574 6.44894 13.5244 5.83624 13.3252C5.08474 13.0809 4.48746 12.9518 4.53947 12.5369C4.56656 12.3208 4.86414 12.0998 5.4322 11.8739Z" fill="white"/>
</g>
<defs>
<clipPath id="clip0_0_703">
<rect width="24" height="24" fill="white"/>
</clipPath>
</defs>
</svg>
