<svg width="24" height="24" viewBox="0 0 24 24" fill="none" xmlns="http://www.w3.org/2000/svg">
<path d="M12 24C18.6274 24 24 18.6274 24 12C24 5.37258 18.6274 0 12 0C5.37258 0 0 5.37258 0 12C0 18.6274 5.37258 24 12 24Z" fill="white" fill-opacity="0.3"/>
<path fill-rule="evenodd" clip-rule="evenodd" d="M5.43153 11.873C8.92977 10.3488 11.2625 9.34403 12.4297 8.85856C15.7622 7.47245 16.4547 7.23167 16.906 7.22372C17.0053 7.22197 17.2272 7.24657 17.371 7.36323C17.4924 7.46174 17.5258 7.59481 17.5418 7.68821C17.5578 7.78161 17.5777 7.99436 17.5619 8.16061C17.3813 10.0581 16.5998 14.6628 16.2023 16.788C16.0341 17.6873 15.7029 17.9888 15.3822 18.0183C14.6854 18.0824 14.1562 17.5577 13.4812 17.1153C12.4251 16.423 11.8284 15.992 10.8032 15.3164C9.61847 14.5357 10.3865 14.1066 11.0617 13.4053C11.2384 13.2217 14.3088 10.429 14.3682 10.1756C14.3757 10.144 14.3826 10.0258 14.3124 9.96348C14.2422 9.90112 14.1387 9.92244 14.0639 9.93941C13.958 9.96345 12.2708 11.0786 9.00227 13.285C8.52336 13.6138 8.08958 13.7741 7.70092 13.7657C7.27246 13.7564 6.44827 13.5234 5.83557 13.3242C5.08407 13.08 4.48679 12.9508 4.5388 12.5359C4.56589 12.3199 4.86347 12.0989 5.43153 11.873Z" fill="white"/>
</svg>
