<svg width="24" height="24" viewBox="0 0 24 24" fill="none" xmlns="http://www.w3.org/2000/svg">
<g clip-path="url(#clip0_0_715)">
<mask id="mask0_0_715" style="mask-type:luminance" maskUnits="userSpaceOnUse" x="0" y="0" width="24" height="24">
<path d="M23.8815 0H0.119141V24H23.8815V0Z" fill="white"/>
</mask>
<g mask="url(#mask0_0_715)">
<path d="M0.119141 11.52C0.119141 6.08942 0.119141 3.37414 1.7895 1.68707C3.45987 0 6.14827 0 11.5251 0H12.4756C17.8524 0 20.5408 0 22.2112 1.68707C23.8815 3.37414 23.8815 6.08942 23.8815 11.52V12.48C23.8815 17.9106 23.8815 20.6259 22.2112 22.3129C20.5408 24 17.8524 24 12.4756 24H11.5251C6.14827 24 3.45987 24 1.7895 22.3129C0.119141 20.6259 0.119141 17.9106 0.119141 12.48V11.52Z" fill="#0077FF"/>
<path d="M12.7626 17.2908C7.34671 17.2908 4.25763 13.5408 4.12891 7.30078H6.84179C6.93089 11.8808 8.93085 13.8208 10.515 14.2208V7.30078H13.0695V11.2507C14.6339 11.0808 16.2773 9.28078 16.8317 7.30078H19.3863C18.9605 9.74079 17.1783 11.5408 15.911 12.2808C17.1783 12.8808 19.2081 14.4508 19.9804 17.2908H17.1684C16.5645 15.3908 15.0596 13.9208 13.0695 13.7208V17.2908H12.7626Z" fill="white"/>
</g>
</g>
<defs>
<clipPath id="clip0_0_715">
<rect width="24" height="24" fill="white"/>
</clipPath>
</defs>
</svg>
