<svg width="24" height="24" viewBox="0 0 24 24" fill="none" xmlns="http://www.w3.org/2000/svg">
<g clip-path="url(#clip0_0_824)">
<mask id="mask0_0_824" style="mask-type:luminance" maskUnits="userSpaceOnUse" x="0" y="0" width="24" height="24">
<path d="M23.8812 0H0.118774V24H23.8812V0Z" fill="white"/>
</mask>
<g mask="url(#mask0_0_824)">
<path d="M0.118774 11.52C0.118774 6.08942 0.118774 3.37414 1.78914 1.68707C3.4595 0 6.14791 0 11.5247 0H12.4752C17.852 0 20.5404 0 22.2108 1.68707C23.8811 3.37414 23.8812 6.08942 23.8812 11.52V12.48C23.8812 17.9106 23.8811 20.6259 22.2108 22.3129C20.5404 24 17.852 24 12.4752 24H11.5247C6.14791 24 3.4595 24 1.78914 22.3129C0.118774 20.6259 0.118774 17.9106 0.118774 12.48V11.52Z" fill="white" fill-opacity="0.3"/>
<path d="M12.7622 17.2898C7.34635 17.2898 4.25726 13.5398 4.12854 7.2998H6.84142C6.93053 11.8798 8.93049 13.8198 10.5146 14.2198V7.2998H13.0692V11.2498C14.6335 11.0798 16.2769 9.2798 16.8314 7.2998H19.3859C18.9601 9.73981 17.178 11.5398 15.9106 12.2798C17.178 12.8798 19.2078 14.4498 19.98 17.2898H17.1681C16.5641 15.3898 15.0593 13.9198 13.0692 13.7198V17.2898H12.7622Z" fill="white"/>
</g>
</g>
<defs>
<clipPath id="clip0_0_824">
<rect width="24" height="24" fill="white"/>
</clipPath>
</defs>
</svg>
