<svg width="24" height="24" viewBox="0 0 24 24" fill="none" xmlns="http://www.w3.org/2000/svg">
<g clip-path="url(#clip0_0_821)">
<path d="M0.23811 23.9383C0.103435 23.8636 0.00227693 23.6936 1.47015e-06 23.5382C-0.000913498 23.4757 0.425373 22.3169 0.947304 20.9632L1.89627 18.5018L1.74287 18.2374C1.4607 17.751 0.89826 16.5701 0.722866 16.0957C0.499497 15.4915 0.219131 14.3725 0.111413 13.6552C0.00684344 12.9589 -0.00942146 11.1556 0.0830519 10.5108C0.481544 7.73221 1.63132 5.38558 3.51974 3.49674C5.40619 1.60986 7.78259 0.441754 10.5087 0.0613207C11.0946 -0.0204402 12.9258 -0.0204402 13.5117 0.0613207C17.0223 0.551221 20.0075 2.38783 21.9525 5.2544C22.9831 6.77328 23.6111 8.40448 23.9129 10.3465C24.0181 11.0234 24.031 12.8696 23.935 13.5144C23.527 16.256 22.3415 18.6551 20.4808 20.505C17.5792 23.3897 13.4504 24.5886 9.40609 23.7209C8.38141 23.501 6.84403 22.8908 5.88698 22.3241L5.65237 22.1852L3.11862 23.0924C1.72505 23.5913 0.53207 23.9998 0.467553 24C0.403036 24.0002 0.299787 23.9725 0.23811 23.9383Z" fill="white" fill-opacity="0.3"/>
<path d="M17.1938 17.1739C16.8531 17.5107 16.5044 17.7257 16.0372 17.8868C15.6004 18.0375 14.8196 18.0775 14.3558 17.973C13.2748 17.7294 11.6196 16.8711 10.2033 15.8196C8.86492 14.8259 7.7127 13.3819 6.75344 11.496C6.00906 10.0326 5.81155 9.0992 6.0494 8.16898C6.31092 7.14624 7.1174 6.30189 8.11204 6.00949C8.29268 5.95639 8.5607 5.93457 9.03241 5.93457C9.6389 5.93457 9.70912 5.94337 9.82406 6.03381C9.90385 6.09658 10.1603 6.54929 10.5218 7.26577L11.0935 8.3985L11.0919 8.79743C11.0905 9.15409 11.0728 9.23365 10.925 9.54843C10.8341 9.74207 10.6201 10.0735 10.4494 10.285L10.139 10.6695L10.3592 11.1086C10.9316 12.2503 11.776 13.0845 12.9447 13.663L13.3403 13.8588L13.6092 13.616C14.1768 13.1037 14.7419 12.8574 15.2708 12.892C15.5787 12.9121 15.6694 12.9486 16.7253 13.4782C17.3447 13.7888 17.8937 14.0898 17.9453 14.147C18.0281 14.2389 18.0409 14.3296 18.0542 14.9203C18.0682 15.5414 18.0604 15.6161 17.9452 15.9593C17.7829 16.443 17.5461 16.8257 17.1938 17.1739Z" fill="white"/>
</g>
<defs>
<clipPath id="clip0_0_821">
<rect width="24" height="24" fill="white"/>
</clipPath>
</defs>
</svg>
