<svg width="25" height="24" viewBox="0 0 25 24" fill="none" xmlns="http://www.w3.org/2000/svg">
<path d="M21.5011 12C21.5011 12.1989 21.4221 12.3897 21.2814 12.5303C21.1408 12.671 20.95 12.75 20.7511 12.75H4.2511C4.05219 12.75 3.86142 12.671 3.72077 12.5303C3.58012 12.3897 3.5011 12.1989 3.5011 12C3.5011 11.8011 3.58012 11.6103 3.72077 11.4697C3.86142 11.329 4.05219 11.25 4.2511 11.25H20.7511C20.95 11.25 21.1408 11.329 21.2814 11.4697C21.4221 11.6103 21.5011 11.8011 21.5011 12ZM4.2511 6.75H20.7511C20.95 6.75 21.1408 6.67098 21.2814 6.53033C21.4221 6.38968 21.5011 6.19891 21.5011 6C21.5011 5.80109 21.4221 5.61032 21.2814 5.46967C21.1408 5.32902 20.95 5.25 20.7511 5.25H4.2511C4.05219 5.25 3.86142 5.32902 3.72077 5.46967C3.58012 5.61032 3.5011 5.80109 3.5011 6C3.5011 6.19891 3.58012 6.38968 3.72077 6.53033C3.86142 6.67098 4.05219 6.75 4.2511 6.75ZM20.7511 17.25H4.2511C4.05219 17.25 3.86142 17.329 3.72077 17.4697C3.58012 17.6103 3.5011 17.8011 3.5011 18C3.5011 18.1989 3.58012 18.3897 3.72077 18.5303C3.86142 18.671 4.05219 18.75 4.2511 18.75H20.7511C20.95 18.75 21.1408 18.671 21.2814 18.5303C21.4221 18.3897 21.5011 18.1989 21.5011 18C21.5011 17.8011 21.4221 17.6103 21.2814 17.4697C21.1408 17.329 20.95 17.25 20.7511 17.25Z" fill="white"/>
</svg>
