<svg width="55" height="13" viewBox="0 0 55 13" fill="none" xmlns="http://www.w3.org/2000/svg">
<path d="M0.182324 6.30746L5.80732 0.68246C5.9246 0.565185 6.08366 0.4993 6.24951 0.4993C6.41536 0.4993 6.57443 0.565185 6.6917 0.68246C6.80898 0.799736 6.87486 0.958795 6.87486 1.12465C6.87486 1.2905 6.80898 1.44956 6.6917 1.56683L2.13311 6.12465L54.3745 6.12465C54.5403 6.12465 54.6992 6.1905 54.8165 6.30771C54.9337 6.42492 54.9995 6.58389 54.9995 6.74965C54.9995 6.91541 54.9337 7.07438 54.8165 7.19159C54.6992 7.3088 54.5403 7.37465 54.3745 7.37465L2.13311 7.37465L6.6917 11.9325C6.80898 12.0497 6.87486 12.2088 6.87486 12.3746C6.87486 12.5405 6.80898 12.6996 6.6917 12.8168C6.57442 12.9341 6.41536 13 6.24951 13C6.08366 13 5.9246 12.9341 5.80732 12.8168L0.182324 7.19184C0.124215 7.13379 0.0781141 7.06486 0.0466619 6.98899C0.0152097 6.91311 -0.000979838 6.83178 -0.000979831 6.74965C-0.000979824 6.66751 0.0152098 6.58618 0.0466619 6.51031C0.0781141 6.43444 0.124215 6.36551 0.182324 6.30746Z" fill="white" fill-opacity="0.5"/>
</svg>
