<svg width="55" height="13" viewBox="0 0 55 13" fill="none" xmlns="http://www.w3.org/2000/svg">
<path d="M54.8167 7.1918L49.1917 12.8168C49.0744 12.9341 48.9154 13 48.7495 13C48.5837 13 48.4246 12.9341 48.3073 12.8168C48.19 12.6995 48.1242 12.5405 48.1242 12.3746C48.1242 12.2088 48.19 12.0497 48.3073 11.9324L52.8659 7.37462H0.624512C0.458751 7.37462 0.299781 7.30877 0.18257 7.19156C0.0653602 7.07435 -0.000488281 6.91538 -0.000488281 6.74962C-0.000488281 6.58385 0.0653602 6.42488 0.18257 6.30767C0.299781 6.19046 0.458751 6.12462 0.624512 6.12462H52.8659L48.3073 1.5668C48.19 1.44953 48.1242 1.29047 48.1242 1.12462C48.1242 0.958763 48.19 0.799703 48.3073 0.682428C48.4246 0.565152 48.5837 0.499268 48.7495 0.499268C48.9154 0.499268 49.0744 0.565152 49.1917 0.682428L54.8167 6.30743C54.8748 6.36547 54.9209 6.4344 54.9524 6.51028C54.9838 6.58615 55 6.66748 55 6.74962C55 6.83175 54.9838 6.91308 54.9524 6.98895C54.9209 7.06483 54.8748 7.13376 54.8167 7.1918Z" fill="white"/>
</svg>
