<svg width="16" height="17" viewBox="0 0 16 17" fill="none" xmlns="http://www.w3.org/2000/svg">
<path d="M12.5003 4.5V11C12.5003 11.1326 12.4476 11.2598 12.3538 11.3536C12.2601 11.4473 12.1329 11.5 12.0003 11.5C11.8677 11.5 11.7405 11.4473 11.6467 11.3536C11.553 11.2598 11.5003 11.1326 11.5003 11V5.70687L4.35403 12.8538C4.26021 12.9476 4.13296 13.0003 4.00028 13.0003C3.8676 13.0003 3.74035 12.9476 3.64653 12.8538C3.55271 12.7599 3.5 12.6327 3.5 12.5C3.5 12.3673 3.55271 12.2401 3.64653 12.1462L10.7934 5H5.50028C5.36767 5 5.24049 4.94732 5.14672 4.85355C5.05296 4.75979 5.00028 4.63261 5.00028 4.5C5.00028 4.36739 5.05296 4.24021 5.14672 4.14645C5.24049 4.05268 5.36767 4 5.50028 4H12.0003C12.1329 4 12.2601 4.05268 12.3538 4.14645C12.4476 4.24021 12.5003 4.36739 12.5003 4.5Z" fill="white" fill-opacity="0.5"/>
</svg>
