<svg width="70" height="70" viewBox="0 0 70 70" fill="none" xmlns="http://www.w3.org/2000/svg">
<path fill-rule="evenodd" clip-rule="evenodd" d="M25.2 5.24958C25.5908 5.22591 25.9825 5.27963 26.3525 5.40765C26.7226 5.53566 27.0637 5.73547 27.3563 5.9956C27.649 6.25573 27.8874 6.57107 28.0579 6.92354C28.2284 7.27601 28.3277 7.65867 28.35 8.04958L29.225 21.3496C29.2714 22.1386 29.0025 22.9137 28.4774 23.5045C27.9523 24.0952 27.214 24.4532 26.425 24.4996C25.636 24.546 24.8608 24.2771 24.2701 23.752C23.6794 23.2269 23.3214 22.4886 23.275 21.6996L22.4 8.39958C22.3763 8.00875 22.43 7.61709 22.5581 7.24706C22.6861 6.87703 22.8859 6.53591 23.146 6.24326C23.4061 5.95062 23.7215 5.7122 24.074 5.54168C24.4264 5.37116 24.8091 5.2719 25.2 5.24958ZM45.815 5.87958C46.193 5.98809 46.5458 6.17048 46.8528 6.41619C47.1599 6.6619 47.4152 6.96605 47.604 7.31107C47.7928 7.65608 47.9113 8.03509 47.9527 8.42619C47.994 8.81729 47.9574 9.21271 47.845 9.58958L43.12 25.8646C42.8972 26.6258 42.3812 27.2672 41.6854 27.6479C40.9897 28.0286 40.1712 28.1174 39.41 27.8946C38.6488 27.6718 38.0073 27.1558 37.6266 26.46C37.2459 25.7642 37.1572 24.9458 37.38 24.1846L42.105 7.90958C42.2135 7.53157 42.3959 7.17882 42.6416 6.87174C42.8873 6.56466 43.1915 6.30935 43.5365 6.12057C43.8815 5.93179 44.2605 5.81329 44.6516 5.77193C45.0427 5.73056 45.4381 5.76715 45.815 5.87958ZM47.88 30.6596C48.333 30.1395 48.9724 29.8186 49.6601 29.7662C50.3478 29.7138 51.0285 29.9341 51.555 30.3796C53.5863 32.1403 55.1972 34.3338 56.2692 36.799C57.3413 39.2641 57.8473 41.9382 57.75 44.6246C57.75 54.0046 49.7 64.7496 35 64.7496C24.08 64.7496 12.25 56.9796 12.25 44.6246C12.25 42.2446 12.985 39.0596 14.945 36.3996C16.975 33.5996 20.3 31.4996 24.99 31.4996C26.355 31.4996 31.64 31.9546 34.755 38.1846C35.0706 38.8112 35.1244 39.5374 34.9045 40.2037C34.6846 40.8699 34.2091 41.4215 33.5825 41.7371C32.9559 42.0527 32.2296 42.1065 31.5634 41.8866C30.8972 41.6667 30.3456 41.1912 30.03 40.5646C28.175 36.7846 25.305 36.7496 24.99 36.7496C22.085 36.7496 20.3 37.9746 19.18 39.5146C18.1218 41.0117 17.5366 42.7916 17.5 44.6246C17.5 53.1296 25.9 59.4996 35 59.4996C46.76 59.4996 52.5 51.0996 52.5 44.6246C52.5 41.2996 51.73 37.4146 48.16 34.3696C47.8974 34.1448 47.6817 33.8704 47.5254 33.562C47.3691 33.2537 47.2752 32.9175 47.2492 32.5728C47.2232 32.228 47.2655 31.8816 47.3738 31.5533C47.482 31.2249 47.6541 30.9212 47.88 30.6596Z" fill="#D257FF"/>
</svg>
